<svg xmlns="http://www.w3.org/2000/svg" viewBox="0 0 21.95 20"><defs><style>.cls-1{fill:#00de91;}</style></defs><title>Green Empty Star</title><g id="Layer_2" data-name="Layer 2"><g id="Layer_1-2" data-name="Layer 1"><path class="cls-1" d="M11,1.67l2.27,5.25a1.15,1.15,0,0,0,1.06.7h5.91l-4.71,4.2A1.16,1.16,0,0,0,15.17,13l1.53,5.5-5.11-3.18a1.22,1.22,0,0,0-.61-.17,1.17,1.17,0,0,0-.61.17L5.26,18.5,6.79,13a1.17,1.17,0,0,0-.35-1.18L1.73,7.62H7.64a1.14,1.14,0,0,0,1.06-.7L11,1.67M11,0a.29.29,0,0,0-.28.18L7.92,6.58a.3.3,0,0,1-.28.19H.31A.31.31,0,0,0,.1,7.3l5.78,5.16a.33.33,0,0,1,.09.31l-1.9,6.84a.3.3,0,0,0,.29.39A.25.25,0,0,0,4.52,20L10.82,16A.29.29,0,0,1,11,16a.32.32,0,0,1,.16,0L17.43,20a.25.25,0,0,0,.16.05.31.31,0,0,0,.3-.39L16,12.77a.29.29,0,0,1,.09-.31L21.85,7.3a.3.3,0,0,0-.2-.53H14.31A.3.3,0,0,1,14,6.58L11.26.18A.31.31,0,0,0,11,0Z"/></g></g></svg>