<svg xmlns="http://www.w3.org/2000/svg" viewBox="0 0 21.95 20"><defs><style>.cls-1{fill:#00de91;}</style></defs><title>Green Filled Star</title><g id="Layer_2" data-name="Layer 2"><g id="Layer_1-2" data-name="Layer 1"><path class="cls-1" d="M21.65,6.77H14.31A.3.3,0,0,1,14,6.58L11.26.18a.31.31,0,0,0-.56,0L7.92,6.58a.3.3,0,0,1-.28.19H.31A.31.31,0,0,0,.1,7.3l5.78,5.16a.33.33,0,0,1,.09.31l-1.9,6.84a.3.3,0,0,0,.45.34L10.82,16a.31.31,0,0,1,.32,0L17.43,20a.31.31,0,0,0,.46-.34L16,12.77a.29.29,0,0,1,.09-.31L21.85,7.3A.3.3,0,0,0,21.65,6.77Z"/></g></g></svg>