<svg xmlns="http://www.w3.org/2000/svg" viewBox="0 0 57.24 50"><defs><style>.cls-1{fill:#fff;}</style></defs><title>Empty Heart</title><g id="Layer_2" data-name="Layer 2"><g id="Layer_1-2" data-name="Layer 1"><path class="cls-1" d="M16.41,3C22,3,26.64,7.15,26.67,7.19l1.91,1.74,2-1.63c3.42-2.77,6.79-4.18,10-4.18,5.89,0,9.78,4.73,9.81,4.76l0,0,0,0C53.67,11.78,54.81,15.73,54,20c-2.41,12.35-20,23.48-25.25,26.52C8.87,34.79,3.81,25.12,3.1,19A13.29,13.29,0,0,1,6.64,8.22l.13-.12L6.88,8c2.86-3.3,6.06-5,9.53-5m0-3C12.69,0,8.54,1.47,4.62,6c0,0-20.26,18.45,24.08,44,0,0,42-22.4,24.08-44,0,0-4.66-5.9-12.16-5.9C37.18.12,33.15,1.36,28.7,5c0,0-5.43-5-12.29-5Z"/></g></g></svg>