<svg xmlns="http://www.w3.org/2000/svg" viewBox="0 0 14.35 13.07"><title>Empy Star</title><g id="Layer_2" data-name="Layer 2"><g id="Layer_1-2" data-name="Layer 1"><path d="M7.18,1.21,8.62,4.54A.81.81,0,0,0,9.36,5H13.1l-3,2.67a.79.79,0,0,0-.24.81l1,3.48L7.6,10a.79.79,0,0,0-.42-.12.82.82,0,0,0-.43.12L3.51,12l1-3.48a.79.79,0,0,0-.24-.81L1.25,5H5a.81.81,0,0,0,.74-.49L7.18,1.21M7.18,0A.21.21,0,0,0,7,.12L5.18,4.3A.21.21,0,0,1,5,4.43H.2a.19.19,0,0,0-.13.34L3.84,8.14a.2.2,0,0,1,.06.21L2.66,12.82a.19.19,0,0,0,.19.25A.23.23,0,0,0,3,13l4.11-2.55a.2.2,0,0,1,.11,0,.19.19,0,0,1,.1,0L11.4,13a.19.19,0,0,0,.29-.22L10.45,8.35a.2.2,0,0,1,.06-.21l3.77-3.37a.19.19,0,0,0-.13-.34H9.36a.22.22,0,0,1-.19-.13L7.36.12A.2.2,0,0,0,7.18,0Z"/></g></g></svg>